<svg width="260" height="260" viewBox="0 0 260 260" fill="none" xmlns="http://www.w3.org/2000/svg">
<g clip-path="url(#clip0_0_106)">
<rect x="1" y="1" width="258" height="258" rx="11" fill="white" stroke="#F6F7FA" stroke-width="2"/>
<mask id="mask0_0_106" style="mask-type:luminance" maskUnits="userSpaceOnUse" x="0" y="0" width="260" height="260">
<rect x="1" y="1" width="258" height="258" rx="11" fill="white" stroke="white" stroke-width="2"/>
</mask>
<g mask="url(#mask0_0_106)">
<path fill-rule="evenodd" clip-rule="evenodd" d="M88.0012 195.21C88.161 215.564 107.023 249.139 130.162 249.986C147.545 250.621 189.426 229.811 191.904 207.129C193.422 193.183 177.118 136.204 131.68 143.671C112.618 146.806 87.8014 169.645 88.0012 195.21Z" fill="#C4E2E6"/>
<path fill-rule="evenodd" clip-rule="evenodd" d="M150.92 227.395C146.56 267.754 87.1599 297.652 84.9599 296.582C82.7599 295.51 83.3999 294.049 84.9599 293.381C114.8 280.322 130.48 239.461 133.72 215.397C134.24 211.707 151.4 223.148 150.92 227.395Z" fill="#EB8268"/>
<mask id="mask1_0_106" style="mask-type:luminance" maskUnits="userSpaceOnUse" x="139" y="246" width="10" height="10">
<path fill-rule="evenodd" clip-rule="evenodd" d="M139.12 255.378C140.84 253.038 142.4 250.62 143.84 248.137C145.28 247.711 146.72 247.228 148.2 246.691L148.12 246.99C148.12 246.99 140.88 254.957 139.12 255.378Z" fill="white"/>
</mask>
<g mask="url(#mask1_0_106)">
<path fill-rule="evenodd" clip-rule="evenodd" d="M139.12 255.378H148.2V246.691H139.12V255.378Z" fill="#FFFFFE"/>
</g>
<path fill-rule="evenodd" clip-rule="evenodd" d="M139.12 255.378C143.88 248.881 147.64 241.806 149.64 234.304C148.36 239.103 146.36 243.728 143.84 248.137C142.4 250.62 140.84 253.038 139.12 255.378Z" fill="#EFA630"/>
<path fill-rule="evenodd" clip-rule="evenodd" d="M138.96 255.396C138.64 255.396 138.6 255.042 138.92 254.188C140.92 248.998 140.52 243.052 139.04 237.849C140.36 234.766 141.4 231.738 142.16 228.809C144.76 230.577 147.24 232.411 149.64 234.304C147.64 241.806 143.88 248.881 139.12 255.378C139.04 255.39 139 255.396 138.96 255.396Z" fill="#DE7960"/>
<path fill-rule="evenodd" clip-rule="evenodd" d="M131.88 225.376V225.376C132.16 224.193 132.4 223.033 132.64 221.895V221.895C132.4 223.032 132.16 224.195 131.88 225.376Z" fill="#DF882F"/>
<path fill-rule="evenodd" clip-rule="evenodd" d="M138.68 236.684C137 231.479 134.28 227.172 131.88 225.376C132.16 224.195 132.4 223.032 132.64 221.895C133.04 222.796 133.56 223.463 134.12 223.795C136.68 225.251 139.12 226.77 141.48 228.348C140.8 231.026 139.88 233.818 138.68 236.684Z" fill="#DE7960"/>
<path fill-rule="evenodd" clip-rule="evenodd" d="M83.7201 295.59C83.6001 295.382 83.5601 295.172 83.5601 294.967C83.5601 294.913 83.5601 294.859 83.5601 294.805C95.0797 289.9 108 279.817 119.36 266.739C128.08 256.764 134.76 246.297 138.68 236.684C139.88 233.818 140.8 231.026 141.48 228.348C141.68 228.5 141.92 228.656 142.16 228.809C141.4 231.738 140.36 234.766 139.04 237.849C129.32 260.726 105.2 286.528 83.7201 295.59Z" fill="#DB7055"/>
<path fill-rule="evenodd" clip-rule="evenodd" d="M137.72 204.198C129.6 208.885 130.8 221.884 134.12 223.795C181.32 250.939 197.72 300.648 199.32 318.178C199.48 319.87 201.28 318.791 201.32 316.977C202.96 257.67 158.08 208.36 148.12 203.4C144.68 201.684 141.52 202.004 137.72 204.198Z" fill="#F98E73"/>
<path fill-rule="evenodd" clip-rule="evenodd" d="M132.8 209.98C133.4 208.542 134.24 207.189 135.36 206.042C136.44 205.924 137.8 205.808 139 205.804H139.12C140.76 205.807 142.12 206.018 142.16 206.7C142.32 208.192 135.6 208.714 132.8 209.98Z" fill="#DF882F"/>
<path fill-rule="evenodd" clip-rule="evenodd" d="M199.32 318.002C199.08 315.388 198.48 312.076 197.56 308.246C195.4 295.97 189.56 278.731 179.88 261.016C161.72 227.518 143.16 216.169 132.04 212.35C132.12 212.087 132.2 211.824 132.24 211.563C140.96 214.503 149.6 220.349 158 228.98C166 237.247 173.84 248.192 180.6 260.633C191.84 281.32 199.44 304.823 199.32 318.002Z" fill="#DB7055"/>
<path fill-rule="evenodd" clip-rule="evenodd" d="M115.32 123.899C122.64 122.347 129.76 107.225 137.32 114.299C155.56 131.388 136.96 164.263 134.92 166.699C132.88 169.135 135.52 180.619 130.92 185.899C128 189.222 124.44 188.946 120.64 188.671C117.2 188.419 113.56 188.165 110.12 190.699C106.8 193.145 106.96 199.756 99.7201 199.9C95.8401 199.976 93.6001 198.63 91.7601 197.283C89.8401 195.856 88.4001 194.428 86.1201 194.699C76.8801 195.788 71.4001 203.822 66.5201 197.499C60.8797 190.214 72.2797 181.097 73.3201 177.499C75.6001 169.64 61.3201 168.415 64.1201 157.099C66.7601 146.441 78.6001 146.446 84.5201 141.098C92.0797 134.274 89.6401 122.128 96.9201 119.099C101.36 117.253 104.12 119.24 106.88 121.226C109.28 122.943 111.72 124.662 115.32 123.899Z" fill="#F8D9AF"/>
<path fill-rule="evenodd" clip-rule="evenodd" d="M152.92 154.299C185.4 166.473 180.8 152.622 173.72 141.098C173.24 140.34 175.36 140.222 175.72 140.699C185.92 155.559 189.6 172.571 147.72 165.1C145.92 164.777 151.28 153.694 152.92 154.299Z" fill="#3D43A2"/>
<path fill-rule="evenodd" clip-rule="evenodd" d="M178.68 165.988C178.36 165.515 178 165.045 177.68 164.579C181.04 162.761 182.4 160.004 182.4 156.749C182.4 155.998 182.32 155.222 182.2 154.424C182.24 153.696 182.44 153.446 182.68 153.432H182.72C183.2 153.457 183.76 154.299 183.76 154.299V161.099L178.68 165.988Z" fill="#FFFFFE"/>
<path fill-rule="evenodd" clip-rule="evenodd" d="M165.16 166.918C162.12 166.918 158.6 166.677 154.6 166.16C153.96 163.915 153.56 161.763 153.36 159.924C160.28 162.384 165.88 163.446 170.24 163.446C178.24 163.446 182.04 159.817 182.16 154.698C182.16 154.6 182.2 154.509 182.2 154.424C182.32 155.222 182.4 155.998 182.4 156.749C182.4 162.655 177.92 166.918 165.16 166.918Z" fill="#2D3182"/>
<path fill-rule="evenodd" clip-rule="evenodd" d="M173.72 140.699C173.4 139.857 178.76 134.928 179.72 135.899C180.64 136.87 180.68 139.334 180.12 139.9C179.52 140.464 176.96 141.814 176.12 141.9C175.24 141.984 174 141.54 173.72 140.699Z" fill="#F2BCB6"/>
<path fill-rule="evenodd" clip-rule="evenodd" d="M127.44 156.974C136.24 176.926 137.84 193.485 137.24 203.791C137.12 205.689 148 207.912 150.08 204.363C151 202.8 153.56 183.327 152.76 175.715C154.68 174.904 156.52 171.53 155.8 169.731C152.68 162.133 153.04 154.299 153.04 154.299C153.04 154.299 148.96 153.07 146.24 151.487C145.76 151.201 145.32 151.452 144.88 151.703C144.48 151.96 144.08 152.217 143.76 151.899C142.44 150.608 139.36 151.151 138.56 151.899C138.28 152.183 137.8 151.983 137.36 151.782C136.96 151.594 136.56 151.405 136.28 151.625C133.92 153.678 131.64 154.865 127.44 156.974Z" fill="#4C52BC"/>
<path fill-rule="evenodd" clip-rule="evenodd" d="M153.08 175.559C154.68 174.659 156.12 172.136 155.96 170.386C156.12 172.136 154.68 174.659 153.08 175.559Z" fill="#4A5256"/>
<path fill-rule="evenodd" clip-rule="evenodd" d="M143.44 176.269C140.96 176.269 138.8 176.072 138.16 175.499C138 175.32 137.88 175.06 137.88 174.757V174.697C137.92 173.415 139.32 171.433 140.6 171.433C140.72 171.433 140.84 171.454 140.96 171.499C141.24 171.591 141.76 171.631 142.44 171.631C145.88 171.63 153.6 170.706 155.96 170.386C156.12 172.136 154.68 174.659 153.08 175.559C151.52 175.852 147.12 176.269 143.44 176.269Z" fill="#383D95"/>
<path fill-rule="evenodd" clip-rule="evenodd" d="M132.2 206.828C133.56 207.208 142 208.36 142.24 206.446C142.44 204.532 133.36 203.781 132.28 204.791C131.24 205.801 130.84 206.448 132.2 206.828Z" fill="#F2BCB6"/>
<path fill-rule="evenodd" clip-rule="evenodd" d="M166.24 126.859C163.44 127.909 160.84 131.07 161.96 134.271C163.04 137.468 167.2 137.719 169.56 137.078C171.92 136.437 184.04 134.847 187.76 134.645C190.4 134.503 193.24 136.09 195.56 137.679C198.04 139.357 199.88 141.034 200.24 140.671C203.56 137.274 201.28 111.274 195.32 108.346C193.52 107.47 191.04 117.563 186.72 119.056C175.52 122.951 167.56 126.351 166.24 126.859Z" fill="#D8E0F7"/>
<path fill-rule="evenodd" clip-rule="evenodd" d="M172.28 135.155C172.32 135.814 175.92 141.972 177.04 141.985C178.12 141.998 179.24 141.883 179.44 141.201C179.6 140.516 178.76 140.611 178.24 139.993C177.72 139.374 177.28 135.248 176.68 134.382C176.08 133.517 172.2 134.496 172.28 135.155Z" fill="#49A1CD"/>
<path fill-rule="evenodd" clip-rule="evenodd" d="M175.84 144.772C175.2 143.544 174.48 142.308 173.72 141.098C173.64 140.939 173.64 140.808 173.72 140.704C174 141.474 175.08 141.91 175.92 141.91C176 141.91 176.08 141.906 176.12 141.9C176.24 141.89 176.36 141.863 176.48 141.822C177.08 142.725 177.64 143.63 178.2 144.538L175.84 144.772Z" fill="#3D43A2"/>
<path fill-rule="evenodd" clip-rule="evenodd" d="M175.92 141.91C175.08 141.91 174 141.474 173.72 140.704C173.72 140.703 173.72 140.701 173.72 140.699C173.64 140.467 174 139.922 174.56 139.277C175.28 140.382 176.04 141.381 176.6 141.79C176.56 141.801 176.52 141.812 176.48 141.822C176.36 141.863 176.24 141.89 176.12 141.9C176.08 141.906 176 141.91 175.92 141.91ZM179.12 140.588C178.88 140.442 178.52 140.314 178.24 139.993C177.92 139.638 177.64 138.129 177.36 136.744C178.16 136.171 178.92 135.773 179.4 135.773C179.52 135.773 179.64 135.813 179.72 135.899C180.64 136.87 180.68 139.334 180.12 139.9C179.96 140.074 179.56 140.324 179.12 140.588Z" fill="#F2BCB6"/>
<path fill-rule="evenodd" clip-rule="evenodd" d="M177.16 141.986C177.12 141.986 177.08 141.986 177.04 141.985C176.92 141.984 176.76 141.914 176.6 141.79C176.04 141.381 175.28 140.382 174.56 139.277C173.92 138.312 173.28 137.265 172.88 136.461C174.12 136.26 175.6 136.044 177.16 135.832C177.24 136.12 177.28 136.428 177.36 136.744C177.64 138.129 177.92 139.638 178.24 139.993C178.52 140.314 178.88 140.442 179.12 140.588C179.36 140.722 179.52 140.872 179.44 141.201C179.24 141.852 178.24 141.986 177.16 141.986Z" fill="#6D7897"/>
<path fill-rule="evenodd" clip-rule="evenodd" d="M160.6 136.066L159.76 134.699C159.76 134.699 159.48 134.107 159.56 133.718L160.6 136.066Z" fill="#FFFFFE"/>
<path fill-rule="evenodd" clip-rule="evenodd" d="M161.76 133.426C161.72 133.186 161.72 132.946 161.72 132.708C161.72 130.192 163.76 127.92 166 126.968C165.28 128.224 165.32 130.455 165.84 132.554C164.12 132.959 162.72 133.274 161.76 133.426Z" fill="#6D7897"/>
<path fill-rule="evenodd" clip-rule="evenodd" d="M200.12 140.722C199.52 140.722 197.8 139.2 195.56 137.679C193.36 136.157 190.64 134.636 188.12 134.636C188 134.636 187.88 134.64 187.76 134.646C185.76 134.755 181.24 135.276 177.16 135.832C177 135.18 176.84 134.638 176.68 134.382C176.52 134.139 176.08 134.042 175.56 134.042C174.2 134.042 172.2 134.681 172.28 135.155C172.28 135.316 172.52 135.809 172.88 136.461C171.36 136.702 170.16 136.919 169.56 137.078C169.24 137.166 168.88 137.236 168.52 137.285C167.32 136.51 166.36 134.594 165.84 132.554C167.92 132.066 170.4 131.447 173 130.829C178.64 129.48 184.76 128.13 188 128.13C189.12 128.13 189.92 128.3 190.16 128.699C194.48 135.14 197.2 139.119 199.12 139.119C199.2 139.119 199.28 139.112 199.36 139.098C200 138.99 200.56 138.811 200.92 138.811C201 138.811 201.08 138.818 201.12 138.835C200.92 139.673 200.6 140.304 200.24 140.672C200.2 140.706 200.16 140.722 200.12 140.722Z" fill="#E4EBFF"/>
<path fill-rule="evenodd" clip-rule="evenodd" d="M172.88 136.461C172.52 135.809 172.28 135.316 172.28 135.155C172.2 134.681 174.2 134.042 175.56 134.042C176.08 134.042 176.52 134.139 176.68 134.382C176.84 134.638 177 135.18 177.16 135.832C175.6 136.044 174.12 136.26 172.88 136.461Z" fill="#6D7897"/>
<path fill-rule="evenodd" clip-rule="evenodd" d="M167.32 137.362C165.16 137.362 162.76 136.594 161.96 134.271C161.88 133.988 161.8 133.707 161.76 133.426C162.72 133.274 164.12 132.959 165.84 132.554C166.36 134.594 167.32 136.51 168.52 137.285C168.16 137.335 167.76 137.362 167.32 137.362Z" fill="#6D7897"/>
<path fill-rule="evenodd" clip-rule="evenodd" d="M195.52 109.894C194.52 109.693 194.44 117.982 195.6 125.665C196.64 132.546 198.84 138.941 199.72 138.322C201.56 137.058 198.68 110.533 195.52 109.894Z" fill="#AEB9D8"/>
<path fill-rule="evenodd" clip-rule="evenodd" d="M196.24 122.304C196.6 121.911 202.48 121.254 203.04 123.942C203.44 125.982 198.52 127.797 197.4 127.912C196.12 126.164 196.12 123.773 196.24 122.304Z" fill="#6D7897"/>
<path fill-rule="evenodd" clip-rule="evenodd" d="M175.72 140.299C176.28 139.942 179.96 138.149 179.72 137.499C179.44 136.848 174.36 138.423 174.52 139.099C174.64 139.774 175.12 140.656 175.72 140.299Z" fill="#F2BCB6"/>
<path fill-rule="evenodd" clip-rule="evenodd" d="M128.52 156.3C130.96 155.275 135.08 165.176 133.72 165.499C127.48 166.968 107.12 198.097 132.92 204.299C134.04 204.574 133.28 206.906 131.32 206.7C104.04 203.81 109.44 164.271 128.52 156.3Z" fill="#3D43A2"/>
<path fill-rule="evenodd" clip-rule="evenodd" d="M123.72 188.823C122.72 188.823 121.72 188.747 120.64 188.671C120.52 188.661 120.4 188.652 120.24 188.642C120.88 179.962 127.08 170.445 131.36 166.89C132.12 169.103 132.8 171.26 133.4 173.36L126.24 188.608C125.44 188.768 124.6 188.823 123.72 188.823Z" fill="#F8D9AF"/>
<path fill-rule="evenodd" clip-rule="evenodd" d="M120.28 191.833C120.28 191.833 120.28 191.832 120.28 191.832C119.12 180.658 129.56 166.479 133.72 165.499C134.44 165.329 133.64 162.507 132.36 160.02C133.64 162.507 134.44 165.329 133.72 165.499C133.08 165.654 132.28 166.139 131.36 166.89C127.08 170.445 120.88 179.962 120.24 188.642C120.16 189.723 120.2 190.792 120.28 191.833Z" fill="#343A3F"/>
<path fill-rule="evenodd" clip-rule="evenodd" d="M120.28 191.832C120.24 191.725 120.2 191.614 120.16 191.498C115.08 176.108 127.6 162.992 132.36 160.02C133.64 162.507 134.44 165.329 133.72 165.499C129.56 166.479 119.12 180.658 120.28 191.832Z" fill="#2D3182"/>
<path fill-rule="evenodd" clip-rule="evenodd" d="M139.32 124.105C145.6 127.541 148.56 142.233 146.32 143.276C144.72 144.044 142.4 142.429 142.4 142.429C142.4 142.429 141.8 149.346 147 151.683C145.2 154.061 138.8 154.885 136.04 151.506C139.6 148.915 138.04 141.325 137.44 139.303C133.08 123.955 136.4 122.484 139.32 124.105Z" fill="#F2BCB6"/>
<path fill-rule="evenodd" clip-rule="evenodd" d="M142.4 143.765C142.4 143.506 142.4 143.276 142.4 143.082C142.4 142.672 142.4 142.429 142.4 142.429C142.4 142.429 142.96 142.816 143.72 143.12C143.24 143.33 142.8 143.546 142.4 143.765Z" fill="#FBDFD0"/>
<path fill-rule="evenodd" clip-rule="evenodd" d="M137.36 148.299L136.96 139.499C136.96 139.499 137.16 139.232 137.32 138.86C137.36 139.007 137.4 139.154 137.44 139.303C137.76 140.33 138.32 142.792 138.32 145.307C138.32 145.892 138.28 146.48 138.2 147.052C137.6 147.799 137.36 148.299 137.36 148.299Z" fill="#FBDFD0"/>
<path fill-rule="evenodd" clip-rule="evenodd" d="M138.2 147.052C138.28 146.48 138.32 145.892 138.32 145.307C138.32 142.792 137.76 140.33 137.44 139.303C137.4 139.154 137.36 139.007 137.32 138.86C137.6 138.33 137.88 137.586 137.76 137.098C139.52 140.597 142.24 142.418 143.76 143.098C143.76 143.106 143.76 143.113 143.72 143.12C142.96 142.816 142.4 142.429 142.4 142.429C142.4 142.429 142.4 142.672 142.4 143.082C142.4 143.276 142.4 143.506 142.4 143.765C140.24 144.924 138.96 146.163 138.2 147.052Z" fill="#E98B96"/>
<path fill-rule="evenodd" clip-rule="evenodd" d="M138.48 122.518C139.32 124.267 138.96 140.648 135.44 143.883C131.92 147.118 129.12 137.705 129.12 137.705L131.88 124.793C131.88 124.793 137.64 120.769 138.48 122.518Z" fill="#F8D9AF"/>
<path opacity="0.497768" fill-rule="evenodd" clip-rule="evenodd" d="M18.215 120.811C16.8529 119.267 22.2613 108.597 26.0271 114.129C28.0302 90.1928 67.4512 93.7747 48.4217 109.975C59.7593 106.503 73.9011 109.769 60.3197 119.005C61.4419 118.163 67.2909 118.48 67.972 120.359C69.3337 124.046 20.6584 123.564 18.215 120.811Z" fill="#C4E2E6"/>
</g>
<path d="M240 20L234 26" stroke="#B1B4CE" stroke-width="2" stroke-linecap="round" stroke-linejoin="round"/>
<path d="M234 20L240 26" stroke="#B1B4CE" stroke-width="2" stroke-linecap="round" stroke-linejoin="round"/>
<path d="M54.5172 55.42H55.8852L58.7892 64H57.7572L56.9172 61.528H53.3772L52.5492 64H51.5652L54.5172 55.42ZM53.6652 60.7H56.6412L55.1532 56.284L53.6652 60.7ZM60.6271 57.724H61.6231V58.72C61.7671 58.424 62.0071 58.168 62.3431 57.952C62.6871 57.728 63.1191 57.616 63.6391 57.616C63.9671 57.616 64.2631 57.664 64.5271 57.76C64.7991 57.848 65.0311 57.996 65.2231 58.204C65.4231 58.404 65.5751 58.664 65.6791 58.984C65.7911 59.304 65.8471 59.692 65.8471 60.148V64H64.8511V60.076C64.8511 59.524 64.7311 59.12 64.4911 58.864C64.2511 58.608 63.8791 58.48 63.3751 58.48C63.1431 58.48 62.9191 58.516 62.7031 58.588C62.4951 58.66 62.3111 58.768 62.1511 58.912C61.9911 59.056 61.8631 59.236 61.7671 59.452C61.6711 59.668 61.6231 59.916 61.6231 60.196V64H60.6271V57.724ZM70.563 64.108C70.155 64.108 69.775 64.04 69.423 63.904C69.079 63.76 68.779 63.556 68.523 63.292C68.275 63.02 68.079 62.692 67.935 62.308C67.799 61.916 67.731 61.476 67.731 60.988V60.892C67.731 60.412 67.803 59.972 67.947 59.572C68.091 59.172 68.291 58.828 68.547 58.54C68.803 58.244 69.111 58.016 69.471 57.856C69.831 57.696 70.227 57.616 70.659 57.616C71.187 57.616 71.615 57.728 71.943 57.952C72.271 58.168 72.527 58.428 72.711 58.732V54.724H73.707V64H72.711V62.92C72.623 63.072 72.503 63.22 72.351 63.364C72.199 63.508 72.027 63.636 71.835 63.748C71.651 63.852 71.451 63.936 71.235 64C71.019 64.072 70.795 64.108 70.563 64.108ZM70.671 63.28C70.959 63.28 71.231 63.232 71.487 63.136C71.743 63.04 71.963 62.896 72.147 62.704C72.331 62.504 72.475 62.256 72.579 61.96C72.691 61.656 72.747 61.304 72.747 60.904V60.808C72.747 60 72.567 59.404 72.207 59.02C71.855 58.636 71.371 58.444 70.755 58.444C70.131 58.444 69.643 58.652 69.291 59.068C68.939 59.484 68.763 60.076 68.763 60.844V60.94C68.763 61.332 68.811 61.676 68.907 61.972C69.011 62.268 69.147 62.512 69.315 62.704C69.491 62.896 69.695 63.04 69.927 63.136C70.159 63.232 70.407 63.28 70.671 63.28ZM82.2062 66.292C81.7422 66.292 81.3382 66.24 80.9942 66.136C80.6582 66.032 80.3742 65.892 80.1422 65.716C79.9182 65.548 79.7422 65.344 79.6142 65.104C79.4862 64.872 79.4022 64.624 79.3622 64.36H80.3822C80.5262 65.088 81.1302 65.452 82.1942 65.452C82.8182 65.452 83.3102 65.3 83.6702 64.996C84.0302 64.692 84.2102 64.2 84.2102 63.52V62.608C84.1222 62.76 84.0022 62.908 83.8502 63.052C83.7062 63.196 83.5422 63.324 83.3582 63.436C83.1742 63.54 82.9742 63.628 82.7582 63.7C82.5422 63.764 82.3182 63.796 82.0862 63.796C81.6782 63.796 81.2982 63.724 80.9462 63.58C80.5942 63.428 80.2902 63.22 80.0342 62.956C79.7862 62.692 79.5902 62.38 79.4462 62.02C79.3022 61.652 79.2302 61.252 79.2302 60.82V60.736C79.2302 60.312 79.3022 59.912 79.4462 59.536C79.5902 59.152 79.7902 58.82 80.0462 58.54C80.3022 58.252 80.6102 58.028 80.9702 57.868C81.3302 57.7 81.7262 57.616 82.1582 57.616C82.6862 57.616 83.1142 57.728 83.4422 57.952C83.7702 58.168 84.0262 58.428 84.2102 58.732V57.724H85.2062V63.58C85.2062 64.036 85.1302 64.432 84.9782 64.768C84.8262 65.112 84.6182 65.396 84.3542 65.62C84.0902 65.844 83.7742 66.012 83.4062 66.124C83.0462 66.236 82.6462 66.292 82.2062 66.292ZM82.1942 62.968C82.4822 62.968 82.7502 62.92 82.9982 62.824C83.2542 62.72 83.4742 62.576 83.6582 62.392C83.8422 62.2 83.9862 61.968 84.0902 61.696C84.1942 61.416 84.2462 61.1 84.2462 60.748V60.664C84.2462 59.96 84.0662 59.416 83.7062 59.032C83.3542 58.64 82.8702 58.444 82.2542 58.444C81.9422 58.444 81.6622 58.5 81.4142 58.612C81.1662 58.716 80.9582 58.868 80.7902 59.068C80.6222 59.268 80.4902 59.508 80.3942 59.788C80.3062 60.06 80.2622 60.36 80.2622 60.688V60.784C80.2622 61.128 80.3142 61.436 80.4182 61.708C80.5222 61.972 80.6582 62.2 80.8262 62.392C81.0022 62.576 81.2062 62.72 81.4382 62.824C81.6782 62.92 81.9302 62.968 82.1942 62.968ZM90.1897 64.108C89.7497 64.108 89.3417 64.032 88.9657 63.88C88.5977 63.728 88.2777 63.516 88.0057 63.244C87.7337 62.964 87.5217 62.628 87.3697 62.236C87.2257 61.844 87.1537 61.408 87.1537 60.928V60.832C87.1537 60.36 87.2257 59.928 87.3697 59.536C87.5137 59.136 87.7137 58.796 87.9697 58.516C88.2337 58.228 88.5457 58.008 88.9057 57.856C89.2657 57.696 89.6617 57.616 90.0937 57.616C90.4537 57.616 90.8017 57.676 91.1377 57.796C91.4817 57.908 91.7857 58.088 92.0497 58.336C92.3137 58.584 92.5217 58.908 92.6737 59.308C92.8337 59.7 92.9137 60.176 92.9137 60.736V61.06H88.1857C88.2097 61.78 88.3897 62.332 88.7257 62.716C89.0617 63.092 89.5537 63.28 90.2017 63.28C91.1857 63.28 91.7417 62.916 91.8697 62.188H92.8657C92.7537 62.82 92.4577 63.3 91.9777 63.628C91.4977 63.948 90.9017 64.108 90.1897 64.108ZM91.8937 60.256C91.8457 59.608 91.6617 59.144 91.3417 58.864C91.0297 58.584 90.6137 58.444 90.0937 58.444C89.5817 58.444 89.1617 58.608 88.8337 58.936C88.5137 59.256 88.3097 59.696 88.2217 60.256H91.8937ZM96.75 64.084C96.174 64.084 95.746 63.932 95.466 63.628C95.194 63.324 95.058 62.924 95.058 62.428V58.564H94.158V57.724H95.058V56.296H96.054V57.724H97.518V58.564H96.054V62.332C96.054 62.94 96.314 63.244 96.834 63.244C96.994 63.244 97.134 63.232 97.254 63.208C97.374 63.184 97.49 63.152 97.602 63.112V63.952C97.498 63.992 97.382 64.024 97.254 64.048C97.126 64.072 96.958 64.084 96.75 64.084ZM104.655 64.108C104.367 64.108 104.095 64.072 103.839 64C103.583 63.928 103.359 63.816 103.167 63.664C102.983 63.512 102.835 63.32 102.723 63.088C102.619 62.856 102.567 62.58 102.567 62.26C102.567 61.9 102.655 61.596 102.831 61.348C103.007 61.1 103.239 60.9 103.527 60.748C103.823 60.596 104.159 60.488 104.535 60.424C104.919 60.352 105.311 60.316 105.711 60.316H106.611V59.86C106.611 59.356 106.507 58.996 106.299 58.78C106.091 58.556 105.747 58.444 105.267 58.444C104.403 58.444 103.923 58.82 103.827 59.572H102.831C102.863 59.212 102.951 58.908 103.095 58.66C103.247 58.412 103.435 58.212 103.659 58.06C103.891 57.9 104.147 57.788 104.427 57.724C104.715 57.652 105.011 57.616 105.315 57.616C105.619 57.616 105.907 57.652 106.179 57.724C106.459 57.788 106.703 57.908 106.911 58.084C107.119 58.252 107.287 58.48 107.415 58.768C107.543 59.056 107.607 59.42 107.607 59.86V64H106.611V63.208C106.379 63.504 106.111 63.728 105.807 63.88C105.503 64.032 105.119 64.108 104.655 64.108ZM104.751 63.316C105.015 63.316 105.259 63.284 105.483 63.22C105.715 63.148 105.911 63.048 106.071 62.92C106.239 62.792 106.371 62.636 106.467 62.452C106.563 62.26 106.611 62.044 106.611 61.804V61.024H105.747C105.435 61.024 105.143 61.048 104.871 61.096C104.607 61.136 104.375 61.204 104.175 61.3C103.983 61.396 103.831 61.524 103.719 61.684C103.615 61.836 103.563 62.028 103.563 62.26C103.563 62.588 103.651 62.848 103.827 63.04C104.003 63.224 104.311 63.316 104.751 63.316ZM109.175 57.724H110.255L111.719 62.776L113.243 57.724H114.107L115.535 62.776L117.011 57.724H118.031L116.075 64H114.971L113.663 59.296L112.199 64H111.107L109.175 57.724ZM122.225 64.108C121.785 64.108 121.377 64.032 121.001 63.88C120.633 63.728 120.313 63.516 120.041 63.244C119.769 62.964 119.557 62.628 119.405 62.236C119.261 61.844 119.189 61.408 119.189 60.928V60.832C119.189 60.36 119.261 59.928 119.405 59.536C119.549 59.136 119.749 58.796 120.005 58.516C120.269 58.228 120.581 58.008 120.941 57.856C121.301 57.696 121.697 57.616 122.129 57.616C122.489 57.616 122.837 57.676 123.173 57.796C123.517 57.908 123.821 58.088 124.085 58.336C124.349 58.584 124.557 58.908 124.709 59.308C124.869 59.7 124.949 60.176 124.949 60.736V61.06H120.221C120.245 61.78 120.425 62.332 120.761 62.716C121.097 63.092 121.589 63.28 122.237 63.28C123.221 63.28 123.777 62.916 123.905 62.188H124.901C124.789 62.82 124.493 63.3 124.013 63.628C123.533 63.948 122.937 64.108 122.225 64.108ZM123.929 60.256C123.881 59.608 123.697 59.144 123.377 58.864C123.065 58.584 122.649 58.444 122.129 58.444C121.617 58.444 121.197 58.608 120.869 58.936C120.549 59.256 120.345 59.696 120.257 60.256H123.929ZM128.88 64.108C128.128 64.108 127.536 63.932 127.104 63.58C126.68 63.22 126.452 62.716 126.42 62.068H127.392C127.432 62.444 127.56 62.74 127.776 62.956C128 63.172 128.364 63.28 128.868 63.28C129.348 63.28 129.696 63.2 129.912 63.04C130.128 62.872 130.236 62.62 130.236 62.284C130.236 61.948 130.112 61.712 129.864 61.576C129.624 61.432 129.26 61.316 128.772 61.228C128.364 61.156 128.02 61.072 127.74 60.976C127.46 60.872 127.236 60.748 127.068 60.604C126.9 60.46 126.776 60.288 126.696 60.088C126.624 59.888 126.588 59.652 126.588 59.38C126.588 59.092 126.652 58.84 126.78 58.624C126.908 58.4 127.072 58.216 127.272 58.072C127.48 57.92 127.708 57.808 127.956 57.736C128.212 57.656 128.464 57.616 128.712 57.616C128.992 57.616 129.26 57.648 129.516 57.712C129.772 57.768 130 57.868 130.2 58.012C130.408 58.156 130.58 58.344 130.716 58.576C130.852 58.808 130.94 59.092 130.98 59.428H130.02C129.948 59.084 129.808 58.836 129.6 58.684C129.4 58.524 129.1 58.444 128.7 58.444C128.34 58.444 128.052 58.528 127.836 58.696C127.62 58.856 127.512 59.072 127.512 59.344C127.512 59.488 127.532 59.612 127.572 59.716C127.62 59.812 127.7 59.9 127.812 59.98C127.924 60.052 128.072 60.12 128.256 60.184C128.448 60.24 128.688 60.292 128.976 60.34C129.304 60.396 129.6 60.464 129.864 60.544C130.136 60.624 130.368 60.732 130.56 60.868C130.76 60.996 130.912 61.168 131.016 61.384C131.128 61.592 131.184 61.864 131.184 62.2C131.184 62.776 130.992 63.24 130.608 63.592C130.224 63.936 129.648 64.108 128.88 64.108ZM135.717 63.28C136.029 63.28 136.313 63.224 136.569 63.112C136.825 63 137.041 62.84 137.217 62.632C137.393 62.424 137.529 62.176 137.625 61.888C137.721 61.592 137.769 61.268 137.769 60.916V60.832C137.769 60.104 137.581 59.524 137.205 59.092C136.837 58.66 136.341 58.444 135.717 58.444C135.085 58.444 134.585 58.66 134.217 59.092C133.849 59.516 133.665 60.092 133.665 60.82V60.916C133.665 61.636 133.845 62.212 134.205 62.644C134.573 63.068 135.077 63.28 135.717 63.28ZM135.705 64.108C135.257 64.108 134.845 64.028 134.469 63.868C134.093 63.708 133.769 63.488 133.497 63.208C133.225 62.92 133.013 62.58 132.861 62.188C132.709 61.796 132.633 61.372 132.633 60.916V60.82C132.633 60.348 132.709 59.916 132.861 59.524C133.021 59.132 133.237 58.796 133.509 58.516C133.781 58.228 134.105 58.008 134.481 57.856C134.865 57.696 135.277 57.616 135.717 57.616C136.165 57.616 136.577 57.696 136.953 57.856C137.329 58.008 137.653 58.224 137.925 58.504C138.197 58.784 138.409 59.12 138.561 59.512C138.721 59.904 138.801 60.336 138.801 60.808V60.904C138.801 61.376 138.721 61.808 138.561 62.2C138.409 62.592 138.193 62.932 137.913 63.22C137.641 63.5 137.317 63.72 136.941 63.88C136.565 64.032 136.153 64.108 135.705 64.108ZM140.744 57.724H141.74V58.684C141.884 58.388 142.116 58.136 142.436 57.928C142.764 57.72 143.156 57.616 143.612 57.616C144.02 57.616 144.388 57.708 144.716 57.892C145.044 58.068 145.288 58.368 145.448 58.792C145.56 58.584 145.696 58.408 145.856 58.264C146.024 58.112 146.204 57.988 146.396 57.892C146.588 57.796 146.788 57.728 146.996 57.688C147.204 57.64 147.404 57.616 147.596 57.616C147.876 57.616 148.144 57.66 148.4 57.748C148.656 57.836 148.88 57.98 149.072 58.18C149.264 58.38 149.416 58.64 149.528 58.96C149.648 59.272 149.708 59.656 149.708 60.112V64H148.712V60.04C148.712 59.488 148.596 59.092 148.364 58.852C148.14 58.604 147.812 58.48 147.38 58.48C147.18 58.48 146.98 58.516 146.78 58.588C146.58 58.652 146.4 58.756 146.24 58.9C146.088 59.036 145.964 59.212 145.868 59.428C145.772 59.636 145.724 59.88 145.724 60.16V64H144.728V60.04C144.728 59.488 144.612 59.092 144.38 58.852C144.156 58.604 143.828 58.48 143.396 58.48C143.196 58.48 142.996 58.516 142.796 58.588C142.596 58.652 142.416 58.756 142.256 58.9C142.104 59.036 141.98 59.212 141.884 59.428C141.788 59.636 141.74 59.88 141.74 60.16V64H140.744V57.724ZM154.633 64.108C154.193 64.108 153.785 64.032 153.409 63.88C153.041 63.728 152.721 63.516 152.449 63.244C152.177 62.964 151.965 62.628 151.813 62.236C151.669 61.844 151.597 61.408 151.597 60.928V60.832C151.597 60.36 151.669 59.928 151.813 59.536C151.957 59.136 152.157 58.796 152.413 58.516C152.677 58.228 152.989 58.008 153.349 57.856C153.709 57.696 154.105 57.616 154.537 57.616C154.897 57.616 155.245 57.676 155.581 57.796C155.925 57.908 156.229 58.088 156.493 58.336C156.757 58.584 156.965 58.908 157.117 59.308C157.277 59.7 157.357 60.176 157.357 60.736V61.06H152.629C152.653 61.78 152.833 62.332 153.169 62.716C153.505 63.092 153.997 63.28 154.645 63.28C155.629 63.28 156.185 62.916 156.313 62.188H157.309C157.197 62.82 156.901 63.3 156.421 63.628C155.941 63.948 155.345 64.108 154.633 64.108ZM156.337 60.256C156.289 59.608 156.105 59.144 155.785 58.864C155.473 58.584 155.057 58.444 154.537 58.444C154.025 58.444 153.605 58.608 153.277 58.936C152.957 59.256 152.753 59.696 152.665 60.256H156.337ZM162.862 57.724H163.858V58.852C164.058 58.5 164.31 58.212 164.614 57.988C164.926 57.756 165.362 57.632 165.922 57.616V58.552C165.61 58.568 165.326 58.608 165.07 58.672C164.814 58.736 164.594 58.844 164.41 58.996C164.234 59.148 164.098 59.352 164.002 59.608C163.906 59.856 163.858 60.172 163.858 60.556V64H162.862V57.724ZM170.165 64.108C169.725 64.108 169.317 64.032 168.941 63.88C168.573 63.728 168.253 63.516 167.981 63.244C167.709 62.964 167.497 62.628 167.345 62.236C167.201 61.844 167.129 61.408 167.129 60.928V60.832C167.129 60.36 167.201 59.928 167.345 59.536C167.489 59.136 167.689 58.796 167.945 58.516C168.209 58.228 168.521 58.008 168.881 57.856C169.241 57.696 169.637 57.616 170.069 57.616C170.429 57.616 170.777 57.676 171.113 57.796C171.457 57.908 171.761 58.088 172.025 58.336C172.289 58.584 172.497 58.908 172.649 59.308C172.809 59.7 172.889 60.176 172.889 60.736V61.06H168.161C168.185 61.78 168.365 62.332 168.701 62.716C169.037 63.092 169.529 63.28 170.177 63.28C171.161 63.28 171.717 62.916 171.845 62.188H172.841C172.729 62.82 172.433 63.3 171.953 63.628C171.473 63.948 170.877 64.108 170.165 64.108ZM171.869 60.256C171.821 59.608 171.637 59.144 171.317 58.864C171.005 58.584 170.589 58.444 170.069 58.444C169.557 58.444 169.137 58.608 168.809 58.936C168.489 59.256 168.285 59.696 168.197 60.256H171.869ZM174.087 57.724H175.167L176.631 62.776L178.155 57.724H179.019L180.447 62.776L181.923 57.724H182.943L180.987 64H179.883L178.575 59.296L177.111 64H176.019L174.087 57.724ZM186.141 64.108C185.853 64.108 185.581 64.072 185.325 64C185.069 63.928 184.845 63.816 184.653 63.664C184.469 63.512 184.321 63.32 184.209 63.088C184.105 62.856 184.053 62.58 184.053 62.26C184.053 61.9 184.141 61.596 184.317 61.348C184.493 61.1 184.725 60.9 185.013 60.748C185.309 60.596 185.645 60.488 186.021 60.424C186.405 60.352 186.797 60.316 187.197 60.316H188.097V59.86C188.097 59.356 187.993 58.996 187.785 58.78C187.577 58.556 187.233 58.444 186.753 58.444C185.889 58.444 185.409 58.82 185.313 59.572H184.317C184.349 59.212 184.437 58.908 184.581 58.66C184.733 58.412 184.921 58.212 185.145 58.06C185.377 57.9 185.633 57.788 185.913 57.724C186.201 57.652 186.497 57.616 186.801 57.616C187.105 57.616 187.393 57.652 187.665 57.724C187.945 57.788 188.189 57.908 188.397 58.084C188.605 58.252 188.773 58.48 188.901 58.768C189.029 59.056 189.093 59.42 189.093 59.86V64H188.097V63.208C187.865 63.504 187.597 63.728 187.293 63.88C186.989 64.032 186.605 64.108 186.141 64.108ZM186.237 63.316C186.501 63.316 186.745 63.284 186.969 63.22C187.201 63.148 187.397 63.048 187.557 62.92C187.725 62.792 187.857 62.636 187.953 62.452C188.049 62.26 188.097 62.044 188.097 61.804V61.024H187.233C186.921 61.024 186.629 61.048 186.357 61.096C186.093 61.136 185.861 61.204 185.661 61.3C185.469 61.396 185.317 61.524 185.205 61.684C185.101 61.836 185.049 62.028 185.049 62.26C185.049 62.588 185.137 62.848 185.313 63.04C185.489 63.224 185.797 63.316 186.237 63.316ZM191.45 57.724H192.446V58.852C192.646 58.5 192.898 58.212 193.202 57.988C193.514 57.756 193.95 57.632 194.51 57.616V58.552C194.198 58.568 193.914 58.608 193.658 58.672C193.402 58.736 193.182 58.844 192.998 58.996C192.822 59.148 192.686 59.352 192.59 59.608C192.494 59.856 192.446 60.172 192.446 60.556V64H191.45V57.724ZM198.55 64.108C198.142 64.108 197.762 64.04 197.41 63.904C197.066 63.76 196.766 63.556 196.51 63.292C196.262 63.02 196.066 62.692 195.922 62.308C195.786 61.916 195.718 61.476 195.718 60.988V60.892C195.718 60.412 195.79 59.972 195.934 59.572C196.078 59.172 196.278 58.828 196.534 58.54C196.79 58.244 197.098 58.016 197.458 57.856C197.818 57.696 198.214 57.616 198.646 57.616C199.174 57.616 199.602 57.728 199.93 57.952C200.258 58.168 200.514 58.428 200.698 58.732V54.724H201.694V64H200.698V62.92C200.61 63.072 200.49 63.22 200.338 63.364C200.186 63.508 200.014 63.636 199.822 63.748C199.638 63.852 199.438 63.936 199.222 64C199.006 64.072 198.782 64.108 198.55 64.108ZM198.658 63.28C198.946 63.28 199.218 63.232 199.474 63.136C199.73 63.04 199.95 62.896 200.134 62.704C200.318 62.504 200.462 62.256 200.566 61.96C200.678 61.656 200.734 61.304 200.734 60.904V60.808C200.734 60 200.554 59.404 200.194 59.02C199.842 58.636 199.358 58.444 198.742 58.444C198.118 58.444 197.63 58.652 197.278 59.068C196.926 59.484 196.75 60.076 196.75 60.844V60.94C196.75 61.332 196.798 61.676 196.894 61.972C196.998 62.268 197.134 62.512 197.302 62.704C197.478 62.896 197.682 63.04 197.914 63.136C198.146 63.232 198.394 63.28 198.658 63.28ZM206.053 64.108C205.301 64.108 204.709 63.932 204.277 63.58C203.853 63.22 203.625 62.716 203.593 62.068H204.565C204.605 62.444 204.733 62.74 204.949 62.956C205.173 63.172 205.537 63.28 206.041 63.28C206.521 63.28 206.869 63.2 207.085 63.04C207.301 62.872 207.409 62.62 207.409 62.284C207.409 61.948 207.285 61.712 207.037 61.576C206.797 61.432 206.433 61.316 205.945 61.228C205.537 61.156 205.193 61.072 204.913 60.976C204.633 60.872 204.409 60.748 204.241 60.604C204.073 60.46 203.949 60.288 203.869 60.088C203.797 59.888 203.761 59.652 203.761 59.38C203.761 59.092 203.825 58.84 203.953 58.624C204.081 58.4 204.245 58.216 204.445 58.072C204.653 57.92 204.881 57.808 205.129 57.736C205.385 57.656 205.637 57.616 205.885 57.616C206.165 57.616 206.433 57.648 206.689 57.712C206.945 57.768 207.173 57.868 207.373 58.012C207.581 58.156 207.753 58.344 207.889 58.576C208.025 58.808 208.113 59.092 208.153 59.428H207.193C207.121 59.084 206.981 58.836 206.773 58.684C206.573 58.524 206.273 58.444 205.873 58.444C205.513 58.444 205.225 58.528 205.009 58.696C204.793 58.856 204.685 59.072 204.685 59.344C204.685 59.488 204.705 59.612 204.745 59.716C204.793 59.812 204.873 59.9 204.985 59.98C205.097 60.052 205.245 60.12 205.429 60.184C205.621 60.24 205.861 60.292 206.149 60.34C206.477 60.396 206.773 60.464 207.037 60.544C207.309 60.624 207.541 60.732 207.733 60.868C207.933 60.996 208.085 61.168 208.189 61.384C208.301 61.592 208.357 61.864 208.357 62.2C208.357 62.776 208.165 63.24 207.781 63.592C207.397 63.936 206.821 64.108 206.053 64.108Z" fill="#8186AD"/>
<path d="M76.6151 39V27.56H80.4551C81.7671 27.56 82.8071 27.8373 83.5751 28.392C84.3431 28.9467 84.7271 29.7893 84.7271 30.92V30.984C84.7271 32.5947 83.8791 33.6187 82.1831 34.056L85.3991 39H83.0951L80.1031 34.376H78.7431V39H76.6151ZM78.7431 32.856H80.4551C81.9058 32.856 82.6311 32.248 82.6311 31.032V30.968C82.6311 30.3387 82.4445 29.8907 82.0711 29.624C81.7085 29.3467 81.1698 29.208 80.4551 29.208H78.7431V32.856ZM90.507 39.16C89.259 39.16 88.2403 38.776 87.451 38.008C86.6617 37.24 86.267 36.2053 86.267 34.904V34.776C86.267 33.496 86.6563 32.456 87.435 31.656C88.2243 30.856 89.2217 30.456 90.427 30.456C91.5577 30.456 92.4963 30.808 93.243 31.512C94.0003 32.216 94.379 33.272 94.379 34.68V35.24H88.251C88.283 36.04 88.4963 36.6533 88.891 37.08C89.2857 37.5067 89.8403 37.72 90.555 37.72C91.6857 37.72 92.3257 37.2933 92.475 36.44H94.347C94.2083 37.3147 93.803 37.9867 93.131 38.456C92.459 38.9253 91.5843 39.16 90.507 39.16ZM88.283 33.944H92.459C92.363 32.5573 91.6857 31.864 90.427 31.864C89.851 31.864 89.371 32.0507 88.987 32.424C88.6137 32.7867 88.379 33.2933 88.283 33.944ZM96.6442 39V32.088H95.5082V30.632H96.6442V29.512C96.6442 28.5947 96.8896 27.896 97.3802 27.416C97.8709 26.9253 98.5642 26.68 99.4602 26.68C99.8656 26.68 100.234 26.7333 100.564 26.84V28.344C100.298 28.248 100.004 28.2 99.6842 28.2C98.9482 28.2 98.5802 28.6107 98.5802 29.432V30.632H100.484V32.088H98.5802V39H96.6442ZM105.673 39.16C104.425 39.16 103.406 38.776 102.617 38.008C101.827 37.24 101.433 36.2053 101.433 34.904V34.776C101.433 33.496 101.822 32.456 102.601 31.656C103.39 30.856 104.387 30.456 105.593 30.456C106.723 30.456 107.662 30.808 108.409 31.512C109.166 32.216 109.545 33.272 109.545 34.68V35.24H103.417C103.449 36.04 103.662 36.6533 104.057 37.08C104.451 37.5067 105.006 37.72 105.721 37.72C106.851 37.72 107.491 37.2933 107.641 36.44H109.513C109.374 37.3147 108.969 37.9867 108.297 38.456C107.625 38.9253 106.75 39.16 105.673 39.16ZM103.449 33.944H107.625C107.529 32.5573 106.851 31.864 105.593 31.864C105.017 31.864 104.537 32.0507 104.153 32.424C103.779 32.7867 103.545 33.2933 103.449 33.944ZM111.474 39V30.632H113.41V32.2C113.965 31.08 114.871 30.5147 116.13 30.504V32.312C115.223 32.3227 114.541 32.504 114.082 32.856C113.634 33.208 113.41 33.8053 113.41 34.648V39H111.474ZM124.238 39.16C123.416 39.16 122.744 38.9573 122.222 38.552C121.699 38.136 121.438 37.512 121.438 36.68C121.438 35.7627 121.827 35.0907 122.606 34.664C123.384 34.2373 124.424 34.024 125.726 34.024H126.766V33.592C126.766 33.016 126.648 32.5947 126.414 32.328C126.19 32.0507 125.8 31.912 125.246 31.912C124.275 31.912 123.742 32.3493 123.646 33.224H121.774C121.848 32.296 122.211 31.6027 122.862 31.144C123.523 30.6853 124.355 30.456 125.358 30.456C127.587 30.456 128.702 31.4747 128.702 33.512V39H126.798V37.976C126.2 38.7653 125.347 39.16 124.238 39.16ZM124.702 37.768C125.31 37.768 125.806 37.6187 126.19 37.32C126.574 37.0107 126.766 36.5947 126.766 36.072V35.24H125.774C124.163 35.24 123.358 35.6933 123.358 36.6C123.358 37.3787 123.806 37.768 124.702 37.768ZM135.469 39V32.088H134.333V30.632H135.469V29.512C135.469 28.5947 135.715 27.896 136.205 27.416C136.696 26.9253 137.389 26.68 138.285 26.68C138.691 26.68 139.059 26.7333 139.389 26.84V28.344C139.123 28.248 138.829 28.2 138.509 28.2C137.773 28.2 137.405 28.6107 137.405 29.432V30.632H139.309V32.088H137.405V39H135.469ZM141.13 39V30.632H143.066V32.2C143.621 31.08 144.527 30.5147 145.786 30.504V32.312C144.879 32.3227 144.197 32.504 143.738 32.856C143.29 33.208 143.066 33.8053 143.066 34.648V39H141.13ZM147.737 39V30.632H149.673V39H147.737ZM149.497 28.936C149.273 29.1493 149.001 29.256 148.681 29.256C148.361 29.256 148.089 29.1493 147.865 28.936C147.641 28.7227 147.529 28.4613 147.529 28.152C147.529 27.832 147.641 27.5653 147.865 27.352C148.089 27.1387 148.361 27.032 148.681 27.032C149.001 27.032 149.273 27.1387 149.497 27.352C149.721 27.5653 149.833 27.832 149.833 28.152C149.833 28.4613 149.721 28.7227 149.497 28.936ZM155.913 39.16C154.665 39.16 153.647 38.776 152.857 38.008C152.068 37.24 151.673 36.2053 151.673 34.904V34.776C151.673 33.496 152.063 32.456 152.841 31.656C153.631 30.856 154.628 30.456 155.833 30.456C156.964 30.456 157.903 30.808 158.649 31.512C159.407 32.216 159.785 33.272 159.785 34.68V35.24H153.657C153.689 36.04 153.903 36.6533 154.297 37.08C154.692 37.5067 155.247 37.72 155.961 37.72C157.092 37.72 157.732 37.2933 157.881 36.44H159.753C159.615 37.3147 159.209 37.9867 158.537 38.456C157.865 38.9253 156.991 39.16 155.913 39.16ZM153.689 33.944H157.865C157.769 32.5573 157.092 31.864 155.833 31.864C155.257 31.864 154.777 32.0507 154.393 32.424C154.02 32.7867 153.785 33.2933 153.689 33.944ZM161.715 39V30.632H163.651V31.96C163.864 31.5227 164.205 31.1653 164.674 30.888C165.144 30.6 165.704 30.456 166.355 30.456C167.24 30.456 167.939 30.728 168.451 31.272C168.963 31.8053 169.219 32.6267 169.219 33.736V39H167.283V33.912C167.283 33.2827 167.149 32.8187 166.883 32.52C166.616 32.2213 166.195 32.072 165.619 32.072C165.043 32.072 164.568 32.248 164.195 32.6C163.832 32.9413 163.651 33.432 163.651 34.072V39H161.715ZM174.785 39.16C173.697 39.16 172.812 38.792 172.129 38.056C171.446 37.3093 171.105 36.2747 171.105 34.952V34.824C171.105 33.5013 171.457 32.4453 172.161 31.656C172.865 30.856 173.766 30.456 174.865 30.456C176.102 30.456 176.993 30.9413 177.537 31.912V26.76H179.473V39H177.537V37.592C177.302 38.0293 176.929 38.4027 176.417 38.712C175.916 39.0107 175.372 39.16 174.785 39.16ZM175.265 37.624C175.969 37.624 176.534 37.3893 176.961 36.92C177.388 36.4507 177.601 35.7627 177.601 34.856V34.728C177.601 33.8213 177.404 33.1387 177.009 32.68C176.614 32.2107 176.06 31.976 175.345 31.976C174.63 31.976 174.076 32.2213 173.681 32.712C173.286 33.192 173.089 33.88 173.089 34.776V34.904C173.089 35.7893 173.286 36.4667 173.681 36.936C174.086 37.3947 174.614 37.624 175.265 37.624ZM183.254 39.112C182.902 39.112 182.598 38.9947 182.342 38.76C182.097 38.5147 181.974 38.2213 181.974 37.88C181.974 37.528 182.097 37.2347 182.342 37C182.598 36.7547 182.902 36.632 183.254 36.632C183.617 36.632 183.921 36.7547 184.166 37C184.422 37.2347 184.55 37.528 184.55 37.88C184.55 38.2213 184.422 38.5147 184.166 38.76C183.921 38.9947 183.617 39.112 183.254 39.112ZM182.486 35.56L182.198 27.56H184.358L184.054 35.56H182.486Z" fill="#0E1B42"/>
</g>
<defs>
<clipPath id="clip0_0_106">
<rect width="260" height="260" fill="white"/>
</clipPath>
</defs>
</svg>
